<svg width="24" height="24" viewBox="0 0 24 24" fill="none" xmlns="http://www.w3.org/2000/svg">
<g clip-path="url(#clip0_17_2776)">
<path d="M19.9999 8.69V4H15.3099L11.9999 0.690002L8.68994 4H3.99994V8.69L0.689941 12L3.99994 15.31V20H8.68994L11.9999 23.31L15.3099 20H19.9999V15.31L23.3099 12L19.9999 8.69ZM17.9999 14.48V18H14.4799L11.9999 20.48L9.51994 18H5.99994V14.48L3.51994 12L5.99994 9.52V6H9.51994L11.9999 3.52L14.4799 6H17.9999V9.52L20.4799 12L17.9999 14.48ZM11.9999 6.5V17.5C15.0299 17.5 17.4999 15.03 17.4999 12C17.4999 8.97 15.0299 6.5 11.9999 6.5Z" fill="#323232"/>
</g>
<defs>
<clipPath id="clip0_17_2776">
<rect width="24" height="24" fill="white"/>
</clipPath>
</defs>
</svg>
